<svg 
 xmlns="http://www.w3.org/2000/svg"
 xmlns:xlink="http://www.w3.org/1999/xlink"
 width="215px" height="214px">
<path fill-rule="evenodd"  fill="rgb(48, 188, 219)"
 d="M107.306,3.141 C164.831,3.141 211.465,49.639 211.465,106.998 C211.465,164.357 164.831,210.856 107.306,210.856 C49.781,210.856 3.148,164.357 3.148,106.998 C3.148,49.639 49.781,3.141 107.306,3.141 M107.306,-0.006 C48.133,-0.006 -0.009,47.996 -0.009,106.998 C-0.009,166.001 48.133,214.003 107.306,214.003 C166.480,214.003 214.621,166.001 214.621,106.998 C214.621,47.996 166.480,-0.006 107.306,-0.006 C107.306,-0.006 107.306,-0.006 107.306,-0.006 Z"/>
<path fill-rule="evenodd"  fill="rgb(48, 188, 219)"
 d="M107.479,159.991 C107.383,159.991 107.288,159.981 107.198,159.961 C107.198,159.961 107.060,159.915 107.060,159.915 C107.060,159.915 106.881,159.866 106.881,159.866 C106.881,159.866 106.647,159.735 106.647,159.735 C106.534,159.664 106.459,159.602 106.392,159.535 C106.392,159.535 96.006,149.151 96.006,149.151 C95.717,148.862 95.558,148.478 95.558,148.070 C95.558,147.663 95.716,147.279 96.005,146.990 C96.294,146.700 96.677,146.541 97.085,146.541 C97.494,146.541 97.877,146.700 98.165,146.989 C98.165,146.989 105.951,154.772 105.951,154.772 C105.951,154.772 105.951,121.742 105.951,121.742 C105.951,121.742 104.821,121.512 104.821,121.512 C99.592,120.445 95.525,116.379 94.460,111.152 C94.460,111.152 94.230,110.024 94.230,110.024 C94.230,110.024 61.193,110.024 61.193,110.024 C61.193,110.024 68.979,117.806 68.979,117.806 C69.268,118.096 69.427,118.479 69.427,118.887 C69.427,119.295 69.268,119.678 68.980,119.968 C68.690,120.257 68.306,120.416 67.898,120.416 C67.490,120.416 67.106,120.257 66.817,119.968 C66.817,119.968 56.427,109.580 56.427,109.580 C56.357,109.510 56.293,109.432 56.234,109.343 C56.234,109.343 56.184,109.240 56.184,109.240 C56.184,109.240 56.091,109.072 56.091,109.072 C56.091,109.072 56.017,108.814 56.017,108.814 C55.973,108.606 55.966,108.405 56.008,108.194 C56.008,108.194 56.050,108.073 56.050,108.073 C56.050,108.073 56.099,107.897 56.099,107.897 C56.099,107.897 56.231,107.660 56.231,107.660 C56.302,107.547 56.363,107.474 56.426,107.412 C56.426,107.412 66.817,97.022 66.817,97.022 C67.106,96.732 67.489,96.574 67.898,96.574 C68.305,96.574 68.689,96.733 68.979,97.021 C69.267,97.310 69.426,97.694 69.426,98.102 C69.426,98.510 69.267,98.893 68.979,99.183 C68.979,99.183 61.194,106.966 61.194,106.966 C61.194,106.966 94.229,106.966 94.229,106.966 C94.229,106.966 94.458,105.836 94.458,105.836 C95.524,100.608 99.591,96.542 104.820,95.476 C104.820,95.476 105.950,95.246 105.950,95.246 C105.950,95.246 105.950,62.215 105.950,62.215 C105.950,62.215 98.165,69.999 98.165,69.999 C97.876,70.288 97.493,70.447 97.085,70.447 C96.677,70.447 96.293,70.288 96.005,70.000 C95.715,69.710 95.556,69.326 95.556,68.919 C95.556,68.511 95.715,68.128 96.004,67.838 C96.004,67.838 106.395,57.450 106.395,57.450 C106.467,57.377 106.547,57.313 106.633,57.256 C106.633,57.256 106.728,57.212 106.728,57.212 C106.728,57.212 106.910,57.111 106.910,57.111 C106.932,57.106 107.152,57.042 107.154,57.042 C107.292,57.010 107.385,57.002 107.478,57.002 C107.580,57.002 107.682,57.012 107.782,57.031 C107.782,57.031 107.899,57.073 107.899,57.073 C107.899,57.073 108.079,57.124 108.079,57.124 C108.079,57.124 108.317,57.257 108.317,57.257 C108.427,57.326 108.498,57.387 108.562,57.450 C108.562,57.450 118.953,67.840 118.953,67.840 C119.243,68.129 119.402,68.512 119.402,68.920 C119.402,69.328 119.243,69.711 118.954,69.999 C118.665,70.288 118.281,70.447 117.873,70.447 C117.464,70.447 117.080,70.289 116.792,70.000 C116.792,70.000 109.007,62.217 109.007,62.217 C109.007,62.217 109.007,95.249 109.007,95.249 C109.007,95.249 110.137,95.478 110.137,95.478 C115.365,96.544 119.432,100.611 120.498,105.838 C120.498,105.838 120.728,106.968 120.728,106.968 C120.728,106.968 153.765,106.968 153.765,106.968 C153.765,106.968 145.981,99.185 145.981,99.185 C145.692,98.896 145.533,98.512 145.533,98.105 C145.533,97.697 145.692,97.313 145.980,97.024 C146.269,96.735 146.653,96.576 147.060,96.576 C147.469,96.576 147.852,96.735 148.141,97.024 C148.141,97.024 158.532,107.413 158.532,107.413 C158.606,107.486 158.670,107.567 158.726,107.651 C158.726,107.651 158.775,107.752 158.775,107.752 C158.775,107.752 158.866,107.915 158.866,107.915 C158.866,107.915 158.942,108.176 158.942,108.176 C158.986,108.384 158.992,108.584 158.950,108.796 C158.950,108.796 158.910,108.911 158.910,108.911 C158.910,108.911 158.857,109.096 158.857,109.096 C158.857,109.096 158.719,109.342 158.719,109.342 C158.656,109.443 158.595,109.514 158.532,109.579 C158.532,109.579 148.141,119.968 148.141,119.968 C147.852,120.256 147.468,120.415 147.060,120.415 C146.653,120.415 146.268,120.256 145.979,119.966 C145.691,119.678 145.532,119.293 145.532,118.886 C145.532,118.478 145.690,118.096 145.979,117.806 C145.979,117.806 153.764,110.024 153.764,110.024 C153.764,110.024 120.728,110.024 120.728,110.024 C120.728,110.024 120.498,111.152 120.498,111.152 C119.433,116.379 115.365,120.445 110.136,121.512 C110.136,121.512 109.007,121.742 109.007,121.742 C109.007,121.742 109.007,154.772 109.007,154.772 C109.007,154.772 116.792,146.993 116.792,146.993 C117.080,146.703 117.463,146.543 117.872,146.543 C118.280,146.543 118.663,146.703 118.951,146.991 C119.241,147.280 119.401,147.665 119.401,148.073 C119.401,148.480 119.241,148.863 118.953,149.151 C118.953,149.151 108.562,159.542 108.562,159.542 C108.490,159.613 108.413,159.677 108.333,159.728 C108.333,159.728 108.049,159.881 108.049,159.881 C108.049,159.881 107.810,159.946 107.810,159.946 C107.642,159.987 107.553,159.991 107.479,159.991 ZM107.479,98.266 C101.837,98.266 97.248,102.855 97.248,108.495 C97.248,114.135 101.837,118.723 107.479,118.723 C113.120,118.723 117.710,114.135 117.710,108.495 C117.710,102.855 113.120,98.266 107.479,98.266 Z"/>
</svg>
