<?xml version="1.0" encoding="UTF-8" standalone="no"?>
<svg
   xmlns:dc="http://purl.org/dc/elements/1.1/"
   xmlns:cc="http://creativecommons.org/ns#"
   xmlns:rdf="http://www.w3.org/1999/02/22-rdf-syntax-ns#"
   xmlns:svg="http://www.w3.org/2000/svg"
   xmlns="http://www.w3.org/2000/svg"
   xmlns:sodipodi="http://sodipodi.sourceforge.net/DTD/sodipodi-0.dtd"
   xmlns:inkscape="http://www.inkscape.org/namespaces/inkscape"
   width="215px"
   height="214px"
   version="1.1"
   id="svg6"
   sodipodi:docname="pan.svg"
   inkscape:version="0.92.0 r">
  <metadata
     id="metadata12">
    <rdf:RDF>
      <cc:Work
         rdf:about="">
        <dc:format>image/svg+xml</dc:format>
        <dc:type
           rdf:resource="http://purl.org/dc/dcmitype/StillImage" />
      </cc:Work>
    </rdf:RDF>
  </metadata>
  <defs
     id="defs10" />
  <sodipodi:namedview
     pagecolor="#ffffff"
     bordercolor="#666666"
     borderopacity="1"
     objecttolerance="10"
     gridtolerance="10"
     guidetolerance="10"
     inkscape:pageopacity="0"
     inkscape:pageshadow="2"
     inkscape:window-width="1920"
     inkscape:window-height="1005"
     id="namedview8"
     showgrid="false"
     inkscape:zoom="2.2056075"
     inkscape:cx="205.45582"
     inkscape:cy="87.400636"
     inkscape:window-x="0"
     inkscape:window-y="0"
     inkscape:window-maximized="1"
     inkscape:current-layer="svg6" />
  <path
     fill-rule="evenodd"
     fill="rgb(48, 188, 219)"
     d="M107.306,3.141 C164.831,3.141 211.465,49.639 211.465,106.998 C211.465,164.357 164.831,210.856 107.306,210.856 C49.781,210.856 3.148,164.357 3.148,106.998 C3.148,49.639 49.781,3.141 107.306,3.141 M107.306,-0.006 C48.133,-0.006 -0.009,47.996 -0.009,106.998 C-0.009,166.001 48.133,214.003 107.306,214.003 C166.480,214.003 214.621,166.001 214.621,106.998 C214.621,47.996 166.480,-0.006 107.306,-0.006 C107.306,-0.006 107.306,-0.006 107.306,-0.006 Z"
     id="path2" />
  <flowRoot
     xml:space="preserve"
     id="flowRoot3684"
     style="font-style:normal;font-weight:normal;font-size:40px;line-height:25px;font-family:sans-serif;letter-spacing:0px;word-spacing:0px;fill:#000000;fill-opacity:1;stroke:none;stroke-width:1px;stroke-linecap:butt;stroke-linejoin:miter;stroke-opacity:1"
     transform="matrix(1.3596678,0,0,1.3596678,-12.027738,8.9577418)"><flowRegion
       id="flowRegion3686"><rect
         id="rect3688"
         width="133.75"
         height="88.86441"
         x="35.817795"
         y="62.567795" /></flowRegion><flowPara
       id="flowPara3690">REST</flowPara></flowRoot>  <path
     style="fill:#800000;fill-rule:evenodd;stroke-width:0.45338982"
     d="M 42.32616,105.2447 V 85.522245 l 6.007416,0.009 c 10.775761,0.01611 14.652388,1.101584 17.274985,4.83708 1.104229,1.57281 1.370368,2.477286 1.549291,5.265275 0.333901,5.2029 -0.977123,8.07673 -4.50579,9.87692 l -1.804487,0.92058 2.058811,1.81223 c 1.631847,1.43641 2.814172,3.3057 5.701157,9.01366 2.00329,3.96078 3.642346,7.3159 3.642346,7.45581 0,0.13991 -1.120777,0.25438 -2.490617,0.25438 h -2.490616 l -3.165402,-6.31875 c -4.840568,-9.6627 -5.822386,-10.44926 -13.049339,-10.45414 l -3.740466,-0.003 v 8.38771 8.38771 H 44.819805 42.32616 Z m 16.911945,-2.23047 c 1.8379,-1.23186 2.762528,-3.284102 2.774108,-6.157239 0.02095,-5.198145 -2.296756,-6.890043 -9.824824,-7.172 l -4.87394,-0.182549 v 7.352148 7.35215 l 5.32733,-0.17065 c 4.261812,-0.13651 5.581342,-0.34089 6.597326,-1.02186 z"
     id="path3701"
     inkscape:connector-curvature="0" />
</svg>
