<?xml version="1.0" encoding="UTF-8" standalone="no"?>
<svg
   xmlns:dc="http://purl.org/dc/elements/1.1/"
   xmlns:cc="http://creativecommons.org/ns#"
   xmlns:rdf="http://www.w3.org/1999/02/22-rdf-syntax-ns#"
   xmlns:svg="http://www.w3.org/2000/svg"
   xmlns="http://www.w3.org/2000/svg"
   xmlns:sodipodi="http://sodipodi.sourceforge.net/DTD/sodipodi-0.dtd"
   xmlns:inkscape="http://www.inkscape.org/namespaces/inkscape"
   width="215px"
   height="214px"
   version="1.1"
   id="svg6"
   sodipodi:docname="rest.svg"
   inkscape:version="0.92.0 r">
  <metadata
     id="metadata12">
    <rdf:RDF>
      <cc:Work
         rdf:about="">
        <dc:format>image/svg+xml</dc:format>
        <dc:type
           rdf:resource="http://purl.org/dc/dcmitype/StillImage" />
        <dc:title></dc:title>
      </cc:Work>
    </rdf:RDF>
  </metadata>
  <defs
     id="defs10" />
  <sodipodi:namedview
     pagecolor="#ffffff"
     bordercolor="#666666"
     borderopacity="1"
     objecttolerance="10"
     gridtolerance="10"
     guidetolerance="10"
     inkscape:pageopacity="0"
     inkscape:pageshadow="2"
     inkscape:window-width="1920"
     inkscape:window-height="1005"
     id="namedview8"
     showgrid="false"
     inkscape:zoom="2.2056075"
     inkscape:cx="140.39438"
     inkscape:cy="87.400636"
     inkscape:window-x="0"
     inkscape:window-y="0"
     inkscape:window-maximized="1"
     inkscape:current-layer="svg6" />
  <path
     d="M107.306,3.141 C164.831,3.141 211.465,49.639 211.465,106.998 C211.465,164.357 164.831,210.856 107.306,210.856 C49.781,210.856 3.148,164.357 3.148,106.998 C3.148,49.639 49.781,3.141 107.306,3.141 M107.306,-0.006 C48.133,-0.006 -0.009,47.996 -0.009,106.998 C-0.009,166.001 48.133,214.003 107.306,214.003 C166.480,214.003 214.621,166.001 214.621,106.998 C214.621,47.996 166.480,-0.006 107.306,-0.006 C107.306,-0.006 107.306,-0.006 107.306,-0.006 Z"
     id="path2"
     fill-rule="evenodd"
     fill="rgb(48, 188, 219)" />
  <path
     style="fill:#30bddb;fill-opacity:1;fill-rule:evenodd;stroke-width:0.45338982"
     d="m 121.26133,125.40203 c -1.3715,-0.2246 -3.81981,-0.7736 -5.44068,-1.22 l -2.94703,-0.81165 -0.13553,-2.5871 -0.13553,-2.58711 2.40248,1.09718 c 7.2863,3.32755 14.95241,3.24373 18.2513,-0.19957 1.66149,-1.73422 2.12002,-5.4205 0.95458,-7.6742 -1.0931,-2.11383 -2.9867,-3.05692 -8.85759,-4.41147 -8.01866,-1.85009 -11.13572,-3.83373 -12.23306,-7.784902 -1.49146,-5.37023 0.95761,-10.62405 5.96773,-12.802155 3.97144,-1.726547 11.50591,-1.699401 17.02185,0.06133 1.40476,0.448411 1.47351,0.576756 1.47351,2.750653 0,1.995868 -0.099,2.238904 -0.79343,1.948448 -5.56081,-2.325769 -12.09683,-2.751244 -15.54588,-1.01199 -2.54834,1.285053 -3.74015,3.3988 -3.4615,6.139162 0.3493,3.435082 1.90201,4.448584 9.22074,6.018664 5.55702,1.19215 8.06066,2.26858 10.2597,4.41115 4.22847,4.11987 3.8069,12.03539 -0.84523,15.87007 -2.96273,2.44213 -9.70902,3.68554 -15.15643,2.79349 z"
     id="path4570"
     inkscape:connector-curvature="0" />
  <path
     style="fill:#30bddb;fill-opacity:1;fill-rule:evenodd;stroke-width:0.45338982"
     d="M 157.53252,107.28496 V 89.602754 h -7.02755 -7.02754 V 87.5625 85.522245 h 16.54873 16.54873 v 2.028446 2.028445 l -6.9142,0.125156 -6.91419,0.125157 -0.11867,17.568851 -0.11867,17.56886 h -2.48832 -2.48832 z"
     id="path4572"
     inkscape:connector-curvature="0" />
  <path
     style="fill:#30bddb;fill-opacity:1;fill-rule:evenodd;stroke-width:0.45338982"
     d="M 80.002855,105.2447 V 85.522245 h 12.241526 12.241529 v 2.031238 2.031237 l -9.634538,0.122364 -9.634534,0.122365 -0.126507,6.007415 -0.126507,6.007416 h 9.534346 9.53435 v 2.04025 2.04026 h -9.52119 -9.521186 v 7.48093 7.48093 h 9.974576 9.97458 v 2.04026 2.04025 H 92.471076 80.002855 Z"
     id="path4574"
     inkscape:connector-curvature="0" />
  <path
     style="fill:#30bddb;fill-opacity:1;fill-rule:evenodd;stroke-width:0.45338982"
     d="M 42.371499,105.18363 V 85.400107 l 8.04767,0.242131 c 9.230987,0.277734 11.498165,0.836859 14.151244,3.489938 2.111011,2.111011 2.941139,4.921303 2.623303,8.880862 -0.299548,3.731742 -1.800115,6.171782 -4.645694,7.554272 l -2.009123,0.9761 1.330555,0.80916 c 1.950007,1.18587 3.784289,3.93139 7.29637,10.92105 1.721172,3.42543 3.129404,6.3328 3.129404,6.4608 0,0.12801 -1.120777,0.23274 -2.490617,0.23274 h -2.490616 l -3.165402,-6.31875 c -4.840568,-9.6627 -5.822386,-10.44926 -13.049339,-10.45414 l -3.740466,-0.003 v 8.38771 8.38771 h -2.493644 -2.493645 z m 16.178619,-1.95351 c 2.817842,-1.27934 4.187585,-4.701812 3.342104,-8.350653 -0.885815,-3.822913 -3.821041,-5.276713 -10.653696,-5.276713 h -3.879738 v 7.254237 7.254239 l 4.647245,-0.01 c 3.581404,-0.008 5.082285,-0.20747 6.544085,-0.87115 z"
     id="path4576"
     inkscape:connector-curvature="0" />
</svg>
