<svg 
 xmlns="http://www.w3.org/2000/svg"
 xmlns:xlink="http://www.w3.org/1999/xlink"
 width="218.5px" height="215.5px">
<path fill-rule="evenodd"  fill="rgb(0, 187, 222)"
 d="M108.990,3.141 C166.886,3.141 213.819,49.639 213.819,106.998 C213.819,164.357 166.886,210.856 108.990,210.856 C51.094,210.856 4.160,164.357 4.160,106.998 C4.160,49.639 51.094,3.141 108.990,3.141 M108.990,-0.006 C49.435,-0.006 0.983,47.996 0.983,106.998 C0.983,166.001 49.435,214.003 108.990,214.003 C168.545,214.003 216.996,166.001 216.996,106.998 C216.996,47.996 168.545,-0.006 108.990,-0.006 C108.990,-0.006 108.990,-0.006 108.990,-0.006 Z"/>
<path fill-rule="evenodd"  fill="rgb(0, 187, 222)"
 d="M140.853,75.172 M134.339,81.349 C134.062,81.625 133.959,82.132 134.078,82.666 C134.149,82.858 134.413,83.447 134.995,83.575 C134.995,83.575 155.019,88.917 155.019,88.917 C155.180,88.978 155.180,88.978 155.314,88.978 C155.765,88.978 156.053,88.875 156.309,88.621 C156.607,88.326 156.713,87.825 156.591,87.282 C156.591,87.282 151.335,67.700 151.335,67.700 C151.236,67.413 150.968,66.859 150.404,66.735 C150.145,66.651 150.052,66.638 149.961,66.638 C149.644,66.638 149.277,66.790 149.050,67.015 C149.050,67.015 142.700,73.298 142.700,73.298 M153.432,85.775 C153.432,85.775 138.047,81.726 138.047,81.726 C138.047,81.726 149.340,70.551 149.340,70.551 C149.340,70.551 153.432,85.775 153.432,85.775 Z"/>
<path fill-rule="evenodd"  stroke="rgb(0, 187, 222)" stroke-width="3px" stroke-linecap="butt" stroke-linejoin="miter" fill="none"
 d="M158.000,108.000 C158.000,135.062 136.062,157.000 109.000,157.000 C81.938,157.000 60.000,135.062 60.000,108.000 C60.000,80.938 81.938,59.000 109.000,59.000 C122.690,59.000 135.068,64.614 143.959,73.665 "/>
</svg>
